<svg id="Layer_1" data-name="Layer 1" xmlns="http://www.w3.org/2000/svg" viewBox="0 0 283.46 28.98"><defs><style>.cls-1{fill:#231f20;}</style></defs><title>CHICO ONE</title><path class="cls-1" d="M37.29,20.73C36.18,26.62,32.93,32.09,20,32.09,8.47,32.09,2.85,27,2.85,17.6,2.85,8.46,8.16,3.11,20,3.11c8.33,0,15.21,1.91,17.2,11.35H27.09c-.53-1.95-1.87-5.24-7-5.24-5.7,0-7.57,3.86-7.57,8.37S14.17,26,20.05,26c4.09,0,6.54-2.06,7.15-5.24Z" transform="translate(-2.85 -3.11)"/><path class="cls-1" d="M64,19.82H50.17V31.25h-9.1V4h9.1V13.7H64V4h9.1V31.25H64Z" transform="translate(-2.85 -3.11)"/><path class="cls-1" d="M78.68,4h9.1V31.25h-9.1Z" transform="translate(-2.85 -3.11)"/><path class="cls-1" d="M126.43,20.73c-1.11,5.89-4.36,11.35-17.28,11.35C97.61,32.09,92,27,92,17.6,92,8.46,97.3,3.11,109.15,3.11c8.33,0,15.21,1.91,17.2,11.35H116.22c-.53-1.95-1.87-5.24-7-5.24-5.7,0-7.57,3.86-7.57,8.37S103.3,26,109.19,26c4.09,0,6.54-2.06,7.15-5.24Z" transform="translate(-2.85 -3.11)"/><path class="cls-1" d="M146.57,3.11c9.63,0,17.78,3.17,17.78,14.49s-8.14,14.49-17.78,14.49-17.78-3.17-17.78-14.49S136.94,3.11,146.57,3.11Zm0,22.86c4.89,0,8.14-2.64,8.14-8.37s-3.25-8.37-8.14-8.37-8.14,2.68-8.14,8.37S141.72,26,146.57,26Z" transform="translate(-2.85 -3.11)"/><path class="cls-1" d="M199.62,3.11c9.63,0,17.78,3.17,17.78,14.49s-8.14,14.49-17.78,14.49-17.78-3.17-17.78-14.49S190,3.11,199.62,3.11Zm0,22.86c4.89,0,8.14-2.64,8.14-8.37s-3.25-8.37-8.14-8.37-8.14,2.68-8.14,8.37S194.77,26,199.62,26Z" transform="translate(-2.85 -3.11)"/><path class="cls-1" d="M221.49,4H232L244.61,21h.08V4h8.79V31.25H243.43L230.35,14h-.08V31.25h-8.79Z" transform="translate(-2.85 -3.11)"/><path class="cls-1" d="M259,4h27.33V9.84H268.08v4.93h17.09v5.66H268.08v4.93h18.23v5.89H259Z" transform="translate(-2.85 -3.11)"/></svg>